# AST/ASF file generated using VICON BodyLanguage
# -----------------------------------------------
:version 1.10
:name VICON
:units
  mass 1.0
  length 0.45
  angle deg
:documentation
   .ast/.asf automatically generated from VICON data using
   VICON BodyBuilder and BodyLanguage model FoxedUp or BRILLIANT.MOD
:root
   order TX TY TZ RX RY RZ
   axis XYZ
   position 0 0 0  
   orientation 0 0 0 
:bonedata
  begin
     id 1 
     name lhipjoint
     direction 0.716712 -0.619771 0.3197 
     length 2.67249 
     axis 0 0 0  XYZ
  end
  begin
     id 2 
     name lfemur
     direction 0.34202 -0.939693 0  
     length 7.04375  
     axis 0 0 20  XYZ
    dof rx ry rz
    limits (-160.0 20.0)
           (-70.0 70.0)
           (-60.0 70.0)
  end
  begin
     id 3 
     name ltibia
     direction 0.34202 -0.939693 0   
     length 8.12233   
     axis 0 0 20   XYZ
    dof rx
    limits (-10.0 170.0)
  end
  begin
     id 4 
     name lfoot
     direction 0.0986665 -0.271084 0.957485   
     length 1.97802   
     axis -90 7.62852e-016 20   XYZ
    dof rx rz
    limits (-45.0 90.0)
           (-70.0 20.0)
  end
  begin
     id 5 
     name ltoes
     direction 1.53569e-011 -4.21962e-011 1   
     length 0.991074   
     axis -90 7.62852e-016 20   XYZ
    dof rx
    limits (-90.0 20.0)
  end
  begin
     id 6 
     name rhipjoint
     direction -0.684484 -0.647907 0.334213   
     length 2.55643  
     axis 0 0 0  XYZ 
  end
  begin
     id 7 
     name rfemur
     direction -0.34202 -0.939693 0   
     length 7.00452   
     axis 0 0 -20   XYZ
    dof rx ry rz
    limits (-160.0 20.0)
           (-70.0 70.0)
           (-70.0 60.0)
  end
  begin
     id 8 
     name rtibia
     direction -0.34202 -0.939693 0   
     length 7.98545   
     axis 0 0 -20   XYZ
    dof rx
    limits (-10.0 170.0)
 end
 begin
     id 9 
     name rfoot
     direction -0.0877828 -0.241181 0.966502   
     length 2.17223  
     axis -90 -7.62852e-016 -20   XYZ
    dof rx rz
    limits (-45.0 90.0)
           (-20.0 70.0)
  end
  begin
     id 10 
     name rtoes
     direction -1.53586e-011 -4.22014e-011 1   
     length 1.0886   
     axis -90 -7.62852e-016 -20   XYZ
    dof rx
    limits (-90.0 20.0)
  end
  begin
     id 11 
     name lowerback
     direction -0.0470064 0.989573 -0.136149   
     length 2.05976   
     axis 0 0 0   XYZ
    dof rx ry rz
    limits (-20.0 45.0)
           (-30.0 30.0)
           (-30.0 30.0)
  end
  begin
     id 12 
     name upperback
     direction -0.00532895 0.998093 0.0615045   
     length 2.02286   
     axis 0 0 0   XYZ
    dof rx ry rz
    limits (-20.0 45.0)
           (-30.0 30.0)
           (-30.0 30.0)
  end
  begin
     id 13 
     name thorax
     direction 0.0171558 0.991502 0.128954   
     length 2.09196   
     axis 0 0 0   XYZ
    dof rx ry rz
    limits (-20.0 45.0)
           (-30.0 30.0)
           (-30.0 30.0)
  end
  begin
     id 14 
     name lowerneck
     direction 0.0221176 0.995362 0.0936194   
     length 1.70234   
     axis 0 0 0   XYZ
    dof rx ry rz
    limits (-20.0 45.0)
           (-30.0 30.0)
           (-30.0 30.0)
  end
  begin
     id 15 
     name upperneck
     direction -0.0237973 0.998511 -0.0490877   
     length 1.66068   
     axis 0 0 0   XYZ
    dof rx ry rz
    limits (-20.0 45.0)
           (-30.0 30.0)
           (-30.0 30.0)
  end
  begin
     id 16
     name head
     direction -0.00980141 0.999531 -0.0289958  
     length 1.82618  
     axis 0 0 0   XYZ
    dof rx ry rz
    limits (-20.0 45.0)
           (-30.0 30.0)
           (-30.0 30.0)
  end
  begin
     id 17 
     name lclavicle
     direction 0.894784 0.445864 -0.0238113  
     length 3.37997  
     axis 0 0 0   XYZ
    dof ry rz
    limits (-20.0 10.0)
           (0.0 20.0)
  end
  begin
     id 18 
     name lhumerus
     direction 1 -4.48975e-011 6.49229e-028   
     length 5.79016   
     axis 180 -30 -90   XYZ
    dof rx ry rz
    limits (-60.0 90.0)
           (-90.0 90.0)
           (-90.0 90.0)
  end
  begin
     id 19
     name lradius
     direction 1 -4.48959e-011 2.80427e-027   
     length 3.48314   
     axis 180 -30 -90   XYZ
    dof rx
    limits (-10.0 170.0)
  end
  begin
     id 20
     name lwrist
     direction 1 -4.48938e-011 5.60449e-029   
     length 1.74157   
     axis 8.48505e-016 90 90   XYZ
    dof ry
    limits (-180.0 0.0)
 end
  begin
     id 21 
     name lhand
     direction 1 -4.49048e-011 1.1209e-028   
     length 0.587065   
     axis -7.15228e-017 90 90   XYZ
    dof rx rz
    limits (-90.0 90.0)
           (-45.0 45.0)
  end
  begin
     id 22 
     name lfingers
     direction 1 -4.49036e-011 2.24179e-028   
     length 0.473307   
     axis -1.43046e-016 90 90   XYZ
    dof rx
    limits (0.0 90.0)
  end
  begin
     id 23
     name lthumb
     direction 0.707107 -6.34878e-011 0.707107   
     length 0.679577   
     axis -90 45 2.85299e-015   XYZ
    dof rx rz
    limits (-45.0 45.0)
           (-45.0 45.0)
  end
  begin
     id 24 
     name rclavicle
     direction -0.952963 0.303049 0.00480459   
     length 3.50503  
     axis 0 0 0   XYZ 
    dof ry rz
    limits (-10.0 20.0)
           (-20.0 0.0)
  end
  begin
     id 25 
     name rhumerus
     direction -1 -4.48973e-011 -1.5431e-027  
     length 5.69822   
     axis 180 30 90   XYZ
    dof rx ry rz
    limits (-90.0 60.0)
           (-90.0 90.0)
           (-90.0 90.0)
  end
  begin
     id 26 
     name rradius
     direction -1 -4.4896e-011 2.11972e-027   
     length 3.58077   
     axis 180 30 90   XYZ
    dof rx
    limits (-10.0 170.0)
  end
  begin
     id 27 
     name rwrist
     direction -1 -4.48943e-011 5.60449e-029   
     length 1.79039   
     axis 8.48505e-016 -90 -90   XYZ
    dof ry
    limits (-180.0 0.0)
  end
  begin
     id 28
     name rhand
     direction -1 -4.49007e-011 1.1209e-028   
     length 0.620156   
     axis -7.15228e-017 -90 -90   XYZ
    dof rx rz
    limits (-90.0 90.0)
           (-45.0 45.0)
  end
  begin
     id 29
     name rfingers
     direction -1 -4.49025e-011 2.24179e-028   
     length 0.499985   
     axis -1.43046e-016 -90 -90   XYZ
    dof rx
    limits (0.0 90.0)
  end
  begin
     id 30
     name rthumb
     direction -0.707107 -6.3481e-011 0.707107   
     length 0.717882   
     axis -90 -45 -2.85299e-015   XYZ
    dof rx rz
    limits (-45.0 45.0)
           (-45.0 45.0)
  end
:hierarchy
  begin
    root lhipjoint rhipjoint lowerback
    lhipjoint lfemur
    lfemur ltibia
    ltibia lfoot
    lfoot ltoes
    rhipjoint rfemur
    rfemur rtibia
    rtibia rfoot
    rfoot rtoes
    lowerback upperback
    upperback thorax
    thorax lowerneck lclavicle rclavicle
    lowerneck upperneck
    upperneck head
    lclavicle lhumerus
    lhumerus lradius
    lradius lwrist
    lwrist lhand lthumb
    lhand lfingers
    rclavicle rhumerus
    rhumerus rradius
    rradius rwrist
    rwrist rhand rthumb
    rhand rfingers
  end

#!OML:ASF H:\Terrain\Patient Classification 1\PaulMetrics\March17Take4\PaulMetrics.ASF
:FULLY-SPECIFIED
:DEGREES
330
root 11.0043 18.0674 24.5875 -165.575 57.6749 -176.146
lowerback 0.539375 1.19335 -2.20238
upperback -2.62491 1.56936 -0.548068
thorax -3.04173 0.845815 0.618783
lowerneck 0.739693 14.8927 11.1811
upperneck 9.58435 22.255 -15.2955
head 5.74647 10.9673 -4.91434
rclavicle -1.19718e-013 -1.47101e-014
rhumerus -46.3011 8.51366 -80.4757
rradius 31.6837
rwrist -7.50453
rhand -16.4947 -34.7361
rfingers 7.12502
rthumb 9.72285 -64.4917
lclavicle -1.19718e-013 -1.47101e-014
lhumerus -40.5978 -8.49351 80.7019
lradius 56.99
lwrist 29.3597
lhand -22.0049 -23.2833
lfingers 7.12502
lthumb 4.40402 6.65088
rfemur -16.0025 6.82925 16.0878
rtibia 25.9675
rfoot -20.4714 -11.423
rtoes -4.61282
lfemur -29.9868 -6.19364 -18.0035
ltibia 62.6561
lfoot -5.74149 -5.92862
ltoes -7.65307
331
root 11.0613 18.0726 24.6145 -165.643 56.5666 -175.48
lowerback 1.64501 1.18825 -1.98288
upperback -2.55379 1.54057 -0.208451
thorax -3.59534 0.829848 0.821682
lowerneck 0.863835 14.8477 11.0428
upperneck 9.4666 22.2131 -15.3908
head 5.67932 10.9544 -4.94451
rclavicle 1.20265e-014 -1.78906e-014
rhumerus -46.0036 8.6266 -79.7357
rradius 31.6817
rwrist -7.15325
rhand -16.6221 -35.0084
rfingers 7.12502
rthumb 9.6 -64.7697
lclavicle 1.20265e-014 -1.78906e-014
lhumerus -41.1814 -8.73555 81.148
lradius 57.1359
lwrist 29.1671
lhand -22.0137 -22.0577
lfingers 7.12502
lthumb 4.39552 7.87666
rfemur -14.6509 7.40704 17.0228
rtibia 25.3609
rfoot -20.8041 -12.5135
rtoes -4.06129
lfemur -30.5734 -5.4753 -17.5928
ltibia 63.3602
lfoot -5.87983 -5.88878
ltoes -7.40881
332
root 11.1359 18.0825 24.597 -165.404 55.5978 -175.246
lowerback 1.47975 1.26737 -1.45495
upperback -2.53503 1.66675 -0.230209
thorax -3.46947 0.877546 0.502329
lowerneck 0.675239 14.6602 11.2075
upperneck 9.74023 21.9767 -15.3331
head 5.77401 10.832 -4.95596
rclavicle -4.58696e-014 9.14409e-015
rhumerus -45.7608 8.25317 -79.0851
rradius 31.7499
rwrist -7.5771
rhand -16.8468 -34.5628
rfingers 7.12502
rthumb 9.38321 -64.3339
lclavicle -4.58696e-014 9.14409e-015
lhumerus -41.5788 -9.29432 81.5194
lradius 56.941
lwrist 28.7913
lhand -22.7832 -22.2825
lfingers 7.12502
lthumb 3.65247 7.66593
rfemur -14.0122 7.39989 17.4627
rtibia 24.8738
rfoot -21.1276 -12.9572
rtoes -3.88168
lfemur -31.6159 -4.97748 -17.6361
ltibia 63.8182
lfoot -5.8982 -5.54894
ltoes -6.56684
333
root 11.2011 18.0856 24.6068 -165.496 54.4754 -175.484
lowerback 1.67563 1.44222 -1.20892
upperback -2.66949 1.89878 -0.511554
thorax -3.70624 0.985312 0.0568498
lowerneck 0.249441 14.4493 11.5818
upperneck 10.3517 21.6716 -14.9287
head 5.98635 10.6718 -4.87285
rclavicle -9.41245e-014 -2.26615e-014
rhumerus -45.7463 7.14478 -78.5899
rradius 31.8392
rwrist -7.43863
rhand -17.1662 -34.4465
rfingers 7.12502
rthumb 9.07498 -64.2313
lclavicle -9.41245e-014 -2.26615e-014
lhumerus -41.8032 -10.4444 81.6464
lradius 56.6287
lwrist 28.5656
lhand -23.1307 -23.0428
lfingers 7.12502
lthumb 3.31692 6.91118
rfemur -13.5137 7.52056 17.7213
rtibia 24.5294
rfoot -21.509 -13.7361
rtoes -2.67252
lfemur -32.6949 -4.41908 -17.8386
ltibia 63.9674
lfoot -6.08645 -5.61516
ltoes -6.66166
334
root 11.2703 18.0918 24.6129 -165.594 53.5436 -175.587
lowerback 1.97716 1.65704 -0.94801
upperback -2.78975 2.18517 -0.725683
thorax -3.98649 1.11883 -0.336008
lowerneck 0.0251517 14.2943 11.7318
upperneck 10.7417 21.4451 -14.5929
head 6.09141 10.5607 -4.79427
rclavicle -5.23798e-014 1.15295e-014
rhumerus -45.771 6.16461 -78.0388
rradius 31.9551
rwrist -7.3077
rhand -17.764 -34.7568
rfingers 7.12502
rthumb 8.49809 -64.5658
lclavicle -5.23798e-014 1.15295e-014
lhumerus -41.9876 -11.5736 81.83
lradius 56.1674
lwrist 28.2687
lhand -22.8681 -22.9298
lfingers 7.12502
lthumb 3.57052 7.02004
rfemur -13.0556 7.61951 18.0455
rtibia 24.4765
rfoot -21.8591 -14.3327
rtoes -1.86673
lfemur -33.4662 -3.65756 -18.026
ltibia 63.8526
lfoot -6.39783 -5.89453
ltoes -7.18579
335
root 11.34 18.092 24.5938 -165.728 52.7371 -175.647
lowerback 2.03098 1.64798 -0.740246
upperback -2.79075 2.18362 -0.609256
thorax -4.0146 1.11326 -0.333953
lowerneck 0.213759 14.2743 11.4925
upperneck 10.6729 21.4952 -14.7938
head 6.04197 10.5896 -4.83431
rclavicle 2.6339e-014 0
rhumerus -45.5744 6.5628 -77.5389
rradius 32.2051
rwrist -7.89072
rhand -18.4344 -35.5117
rfingers 7.12502
rthumb 7.85109 -65.346
lclavicle 2.6339e-014 0
lhumerus -42.3644 -11.6946 82.27
lradius 55.7376
lwrist 27.6654
lhand -21.8428 -22.0844
lfingers 7.12502
lthumb 4.56053 7.84652
rfemur -12.6814 7.44914 18.269
rtibia 24.6541
rfoot -22.0675 -14.637
rtoes -2.26831
lfemur -34.0289 -3.02212 -18.37
ltibia 63.5915
lfoot -6.76375 -6.02316
ltoes -7.87099
336
root 11.3975 18.086 24.6157 -165.27 51.4413 -175.687
lowerback 1.90796 1.52316 -0.714231
upperback -2.96677 2.0271 -0.512986
thorax -4.12987 1.03888 -0.240744
lowerneck 0.190705 14.1909 11.4487
upperneck 10.6515 21.4241 -14.9879
head 6.04676 10.5509 -4.89462
rclavicle 5.38706e-014 2.38542e-015
rhumerus -45.2794 6.74971 -77.223
rradius 32.5013
rwrist -8.64699
rhand -19.1698 -36.4026
rfingers 7.12502
rthumb 7.14127 -66.2622
lclavicle 5.38706e-014 2.38542e-015
lhumerus -42.6022 -11.8765 82.5321
lradius 55.4547
lwrist 26.9837
lhand -20.7481 -21.4035
lfingers 7.12502
lthumb 5.61753 8.50203
rfemur -12.9328 7.17023 18.7077
rtibia 24.817
rfoot -22.2352 -15.4035
rtoes -2.93391
lfemur -35.49 -2.42709 -18.3856
ltibia 63.3379
lfoot -6.93856 -6.52946
ltoes -7.77754
337
root 11.4563 18.0801 24.6331 -164.684 50.2635 -175.589
lowerback 1.68757 1.55901 -0.490931
upperback -3.09175 2.08828 -0.579363
thorax -4.12425 1.06395 -0.432879
lowerneck -0.0577432 14.0222 11.6095
upperneck 10.7191 21.1763 -15.0286
head 6.09704 10.4202 -4.93854
rclavicle 9.47209e-014 -5.1684e-015
rhumerus -45.0695 6.39296 -76.9738
rradius 32.8648
rwrist -9.21997
rhand -20.1264 -36.7636
rfingers 7.12502
rthumb 6.21775 -66.6524
lclavicle 9.47209e-014 -5.1684e-015
lhumerus -42.73 -12.4745 82.6121
lradius 55.2827
lwrist 26.2639
lhand -20.3773 -20.8995
lfingers 7.12502
lthumb 5.97559 8.99619
rfemur -13.2326 6.94282 19.223
rtibia 25.008
rfoot -22.5726 -16.0996
rtoes -2.84182
lfemur -36.9822 -1.81415 -18.379
ltibia 63.0194
lfoot -7.49911 -6.76507
ltoes -8.25831
338
root 11.5243 18.0751 24.6001 -164.932 49.6899 -175.523
lowerback 1.82107 1.75454 -0.0974869
upperback -2.94734 2.35671 -0.64569
thorax -4.03068 1.18219 -0.736005
lowerneck -0.300445 13.8848 11.716
upperneck 10.9814 21.0297 -15.0954
head 6.21817 10.3363 -4.96681
rclavicle -4.54223e-014 1.19271e-014
rhumerus -44.9614 6.26943 -76.6096
rradius 33.1926
rwrist -9.50435
rhand -20.7626 -36.873
rfingers 7.12502
rthumb 5.60358 -66.779
lclavicle -4.54223e-014 1.19271e-014
lhumerus -43.0049 -12.9737 82.85
lradius 55.0059
lwrist 25.4798
lhand -19.9756 -20.5385
lfingers 7.12502
lthumb 6.36333 9.34588
rfemur -12.6189 6.77342 19.4925
rtibia 25.1441
rfoot -22.8858 -16.1163
rtoes -1.41424
lfemur -37.2648 -1.20037 -18.781
ltibia 62.4795
lfoot -8.66752 -6.25576
ltoes -7.35973
339
root 11.5859 18.0751 24.5858 -164.989 48.8096 -175.802
lowerback 1.8422 1.77706 -0.0572708
upperback -3.05073 2.39059 -0.66971
thorax -4.14705 1.19835 -0.788329
lowerneck -0.443591 13.8244 11.5772
upperneck 11.276 20.9894 -14.9759
head 6.30041 10.3088 -4.90012
rclavicle -6.81831e-014 -1.98785e-015
rhumerus -44.9003 6.27361 -76.1654
rradius 33.6085
rwrist -9.81472
rhand -21.0081 -37.5915
rfingers 7.12502
rthumb 5.36656 -67.5035
lclavicle -6.81831e-014 -1.98785e-015
lhumerus -43.3968 -13.1566 83.1904
lradius 54.6223
lwrist 24.7636
lhand -19.2908 -20.6186
lfingers 7.12502
lthumb 7.02443 9.24488
rfemur -12.4418 6.56135 19.6081
rtibia 25.1773
rfoot -23.0972 -16.3814
rtoes -0.894006
lfemur -38.1136 -0.768964 -19.2633
ltibia 61.7629
lfoot -9.32076 -5.81843
ltoes -6.28048
340
root 11.6448 18.0774 24.5859 -164.805 47.7681 -175.982
lowerback 1.79449 1.59636 -0.222871
upperback -3.1691 2.15404 -0.465103
thorax -4.25959 1.09077 -0.473715
lowerneck -0.288267 13.8969 11.0948
upperneck 11.084 21.1151 -15.0076
head 6.18354 10.3702 -4.84605
rclavicle 9.44724e-014 -3.97569e-015
rhumerus -44.5383 6.79526 -75.7568
rradius 34.0153
rwrist -10.2076
rhand -21.3051 -38.018
rfingers 7.12502
rthumb 5.07979 -67.9371
lclavicle 9.44724e-014 -3.97569e-015
lhumerus -43.832 -12.5357 83.4691
lradius 54.3701
lwrist 23.9714
lhand -18.4793 -20.9842
lfingers 7.12502
lthumb 7.80772 8.85163
rfemur -12.3213 6.42029 19.8917
rtibia 24.9622
rfoot -23.0239 -17.1814
rtoes -3.43068
lfemur -39.1401 -0.385433 -19.5814
ltibia 60.8529
lfoot -9.6598 -5.62589
ltoes -7.9834
341
root 11.7043 18.0714 24.5839 -164.676 46.8149 -176.122
lowerback 1.9656 2.60991 0.0845225
upperback -2.88897 3.48073 -1.53513
thorax -3.97519 1.72493 -1.81544
lowerneck -3.0631 13.26 13.2611
upperneck 12.3448 19.8673 -14.7444
head 7.07825 9.65746 -4.9923
rclavicle -1.59028e-014 6.36111e-015
rhumerus -44.3514 2.29371 -75.1593
rradius 34.1398
rwrist -9.55109
rhand -21.1335 -37.145
rfingers 7.12502
rthumb 5.24541 -67.06
lclavicle -1.59028e-014 6.36111e-015
lhumerus -42.5184 -16.6 83.3133
lradius 53.953
lwrist 23.9736
lhand -17.6868 -21.3523
lfingers 7.12502
lthumb 8.57258 8.45371
rfemur -11.9842 6.25091 20.189
rtibia 24.4764
rfoot -22.7892 -18.005
rtoes -5.47793
lfemur -39.9705 0.198219 -19.9375
ltibia 59.7067
lfoot -10.0542 -5.40831
ltoes -10.1782
342
root 11.7853 18.0649 24.4952 -165.651 47.0799 -176.195
lowerback 1.87955 2.01781 -0.029876
upperback -2.69248 2.70665 -0.58796
thorax -3.79558 1.35353 -0.72805
lowerneck -0.703869 13.8899 11.0933
upperneck 11.1218 21.092 -15.0785
head 6.27084 10.3342 -4.83501
rclavicle -3.06128e-014 -1.43125e-014
rhumerus -43.8139 6.26452 -74.8244
rradius 34.3582
rwrist -10.0716
rhand -20.5867 -36.4891
rfingers 7.12502
rthumb 5.77339 -66.3904
lclavicle -3.06128e-014 -1.43125e-014
lhumerus -44.2054 -12.9498 83.8696
lradius 53.7123
lwrist 23.2509
lhand -16.9864 -21.8785
lfingers 7.12502
lthumb 9.24847 7.89867
rfemur -10.4788 6.11664 20.0639
rtibia 24.2374
rfoot -22.7005 -17.512
rtoes -5.90069
lfemur -38.9798 1.40758 -20.781
ltibia 58.4059
lfoot -11.292 -4.41846
ltoes -12.3154
343
root 11.8532 18.1201 24.4806 -165.531 46.1206 -176.485
lowerback 1.81558 1.92336 -0.236037
upperback -2.81824 2.57745 -0.580257
thorax -3.90052 1.29681 -0.599424
lowerneck -0.716317 13.8935 10.9473
upperneck 11.0843 21.1016 -15.0612
head 6.24492 10.3372 -4.80902
rclavicle 3.762e-014 1.23246e-014
rhumerus -43.6381 6.61635 -74.7119
rradius 34.8828
rwrist -10.8818
rhand -20.173 -36.4961
rfingers 7.12502
rthumb 6.17277 -66.3862
lclavicle 3.762e-014 1.23246e-014
lhumerus -44.3982 -13.007 83.9204
lradius 53.2455
lwrist 22.7215
lhand -16.7739 -21.9762
lfingers 7.12502
lthumb 9.45348 7.79177
rfemur -10.4614 6.02861 20.2364
rtibia 24.2835
rfoot -23.0462 -18.1378
rtoes -5.2165
lfemur -39.6098 1.64936 -21.2881
ltibia 56.8169
lfoot -11.9102 -3.7702
ltoes -14.1528
344
root 11.9126 18.0775 24.4648 -165.511 45.2286 -176.603
lowerback 1.85516 1.90372 -0.232893
upperback -2.83597 2.55246 -0.55605
thorax -3.94246 1.28473 -0.577018
lowerneck -0.775501 13.8105 10.8307
upperneck 11.0575 20.9913 -15.0831
head 6.22148 10.2797 -4.81071
rclavicle -4.18442e-014 -1.82882e-014
rhumerus -43.4182 6.74898 -74.4143
rradius 35.3303
rwrist -11.468
rhand -26.2172 -35.6479
rfingers 7.12502
rthumb 0.335982 -65.6274
lclavicle -4.18442e-014 -1.82882e-014
lhumerus -44.607 -13.1405 84.0967
lradius 52.8747
lwrist 22.1734
lhand -17.5283 -21.3128
lfingers 7.12502
lthumb 8.72552 8.48688
rfemur -10.2637 5.89405 20.4948
rtibia 24.3049
rfoot -23.0737 -18.8519
rtoes -5.60531
lfemur -40.2813 2.11319 -21.7614
ltibia 55.3607
lfoot -12.0642 -3.24373
ltoes -14.4562
